<svg xmlns="http://www.w3.org/2000/svg" xmlns:xlink="http://www.w3.org/1999/xlink" width="189.164" height="35.716" viewBox="0 0 189.164 35.716">
  <defs>
    <clipPath id="clip-path">
      <rect id="長方形_250" data-name="長方形 250" width="189.164" height="35.716" transform="translate(0)" fill="none"/>
    </clipPath>
  </defs>
  <g id="FEMIUNNIE" transform="translate(-19 -2)">
    <g id="グループ_31" data-name="グループ 31" transform="translate(19 2)" clip-path="url(#clip-path)">
      <path id="パス_46" data-name="パス 46" d="M2.911,4.241V8.926A1.476,1.476,0,0,0,4.387,10.4h7.1V13.08H4.583a1.672,1.672,0,0,0-1.672,1.672V25.889H0V0H11.761V2.678H4.474A1.563,1.563,0,0,0,2.911,4.241" transform="translate(4.398 4.398)" fill="#fff"/>
      <path id="パス_47" data-name="パス 47" d="M32.61,4.309V8.788A1.615,1.615,0,0,0,34.226,10.4h8.592v2.678h-8.56a1.648,1.648,0,0,0-1.648,1.648v6.838a1.644,1.644,0,0,0,1.644,1.644H43.09v2.678H29.7V0H43.09V2.679H34.24a1.63,1.63,0,0,0-1.63,1.63" transform="translate(-8.495 4.397)" fill="#fff"/>
      <path id="パス_48" data-name="パス 48" d="M295.393,4.309V8.788a1.615,1.615,0,0,0,1.616,1.615H305.6v2.678h-8.56a1.648,1.648,0,0,0-1.648,1.648v6.838a1.644,1.644,0,0,0,1.644,1.644h8.835v2.678H292.482V0h13.391V2.679h-8.849a1.63,1.63,0,0,0-1.63,1.63" transform="translate(-122.572 4.397)" fill="#fff"/>
      <rect id="長方形_248" data-name="長方形 248" width="2.912" height="25.889" transform="translate(73.408 4.398)" fill="#fff"/>
      <path id="パス_49" data-name="パス 49" d="M139.563,15.875c0,2.678.194,3.842.854,4.968a6.717,6.717,0,0,0,10.906,0c.66-1.126.854-2.29.854-4.968V0h2.911V16.651c0,2.794-.466,4.541-1.708,6.133a9.684,9.684,0,0,1-15.021,0c-1.242-1.592-1.708-3.3-1.708-6.133V0h2.912Z" transform="translate(-54.924 4.398)" fill="#fff"/>
      <rect id="長方形_249" data-name="長方形 249" width="2.911" height="25.889" transform="translate(161.365 4.398)" fill="#fff"/>
      <path id="パス_50" data-name="パス 50" d="M67.875.54l4.713,19.291c.554,4.45,2.648,5.642,4.161,5.631s3.269-1.107,4.359-5.452L85.855.538A.783.783,0,0,1,87.34.755l3.627,24.828H88.011L85.944,10.115a.777.777,0,0,0-1.4-.354l-2.72,10.654c-.905,4.025-2.919,5.952-5.1,5.929-2.295-.024-3.991-1.55-5.017-6.261L69.073,9.768a.718.718,0,0,0-1.364.2L65.487,25.583H62.531L66.412.739a.771.771,0,0,1,1.463-.2" transform="translate(-22.748 4.361)" fill="#fff"/>
      <path id="パス_51" data-name="パス 51" d="M184.3,26.885c-5.893-7.8-8.591-22.713-4.72-23.117,8.091-.845,18.293,23.937,25.236,24.08,6.454.134-9.44-23.984-3.564-24.08,7.464-.122,20.568,26.307,26.585,24.08,2.6-.963-.385-14.929-6.261-22.635" transform="translate(-72.558 1.993)" fill="none" stroke="#fff" stroke-linecap="round" stroke-miterlimit="10" stroke-width="1"/>
    </g>
  </g>
</svg>
