<svg xmlns="http://www.w3.org/2000/svg" xmlns:xlink="http://www.w3.org/1999/xlink" width="54" height="15" viewBox="0 0 54 15"><defs><clipPath id="a"><rect width="54" height="15" transform="translate(2302 -72)" fill="none" stroke="#707070" stroke-width="1"/></clipPath></defs><g transform="translate(-2302 72)" clip-path="url(#a)"><g transform="translate(1933 -453)"><path d="M-7226,11.5h-48a.5.5,0,0,1-.5-.5.5.5,0,0,1,.5-.5h46.391L-7242.284.412a.5.5,0,0,1-.129-.7.5.5,0,0,1,.7-.129h0l.063.043,15.932,10.954.032.024a.491.491,0,0,1,.133.16.491.491,0,0,1,.056.2.5.5,0,0,1-.022.186.5.5,0,0,1-.084.159.5.5,0,0,1-.158.132h0a.5.5,0,0,1-.2.057Z" transform="translate(7647 383.029)" fill="#338f86"/><text transform="translate(370 392.029)" fill="#338f86" font-size="9" font-family="KozGoPro-Light, Kozuka Gothic Pro" font-weight="300"><tspan x="0" y="0">scroll</tspan></text></g></g></svg>